<svg width="52" height="52" viewBox="0 0 52 52" fill="none" xmlns="http://www.w3.org/2000/svg">
<path opacity="0.9" d="M32.5006 24.7814L42.6915 34.9723L41.2452 36.4176L31.0542 26.2267L32.5006 24.7814ZM18.683 24.8253L20.1284 26.2707L10.009 36.39L8.56366 34.9488L18.683 24.8253Z" fill="white"/>
<path d="M25.554 30.5625C24.0208 30.5625 22.3853 29.9492 21.2609 28.7226L8.48392 16.0478L9.91494 14.6168L22.6919 27.3938C24.3274 29.0293 26.8828 29.0293 28.5183 27.3938L41.2953 14.6168L42.7263 16.0478L29.8471 28.8248C28.7227 29.9492 27.0872 30.5625 25.554 30.5625Z" fill="white"/>
<path d="M39.8642 38.8422H11.2438C9.50608 38.8422 8.17728 37.5133 8.17728 35.7757V15.3325C8.17728 13.5948 9.50608 12.266 11.2438 12.266H39.8642C41.6019 12.266 42.9307 13.5948 42.9307 15.3325V35.7757C42.9307 37.5133 41.6019 38.8422 39.8642 38.8422ZM11.2438 14.3103C10.6305 14.3103 10.2216 14.7192 10.2216 15.3325V35.7757C10.2216 36.389 10.6305 36.7978 11.2438 36.7978H39.8642C40.4775 36.7978 40.8864 36.389 40.8864 35.7757V15.3325C40.8864 14.7192 40.4775 14.3103 39.8642 14.3103H11.2438Z" fill="white"/>
</svg>
