<svg width="31" height="30" viewBox="0 0 31 30" fill="none" xmlns="http://www.w3.org/2000/svg">
<path d="M22.2373 13.3179V8.39836H17.3178V5.11871H22.2373V0.199219H25.5169V5.11871H30.4364V8.39836H25.5169V13.3179H22.2373ZM28.7146 29.7161C25.189 29.7161 21.7524 28.9301 18.405 27.3581C15.0565 25.7871 12.0911 23.71 9.50892 21.1267C6.92564 18.5445 4.84853 15.5792 3.27757 12.2306C1.70552 8.88321 0.919495 5.44667 0.919495 1.92104C0.919495 1.42909 1.08348 1.01913 1.41144 0.691167C1.73941 0.363202 2.14937 0.199219 2.64132 0.199219H9.28262C9.66525 0.199219 10.0069 0.322206 10.3075 0.56818C10.6082 0.814155 10.7858 1.12846 10.8405 1.51108L11.9063 7.25048C11.961 7.63311 11.9545 7.9813 11.8867 8.29505C11.8178 8.6099 11.6604 8.89031 11.4144 9.13629L7.47881 13.1539C8.62669 15.1217 10.0615 16.9665 11.7834 18.6883C13.5052 20.4101 15.4047 21.8996 17.4818 23.1568L21.3354 19.3032C21.5813 19.0573 21.9027 18.8725 22.2996 18.749C22.6953 18.6265 23.0845 18.5926 23.4671 18.6473L29.1246 19.7952C29.5072 19.8772 29.8215 20.0614 30.0675 20.3478C30.3134 20.6353 30.4364 20.9704 30.4364 21.353V27.9943C30.4364 28.4863 30.2724 28.8962 29.9445 29.2242C29.6165 29.5522 29.2065 29.7161 28.7146 29.7161Z" fill="white"/>
</svg>
